{
  "accessors": [
    {
      "bufferView": 2,
      "componentType": 5126,
      "count": 646,
      "max": [
        19.11954116821289,
        -0.5242469906806946,
        7.876944065093994
      ],
      "min": [
        4.480686187744141,
        -0.5242549777030945,
        -6.728332996368408
      ],
      "type": "VEC3"
    },
    {
      "bufferView": 2,
      "byteOffset": 7752,
      "componentType": 5126,
      "count": 646,
      "max": [
        0.004035467281937599,
        1.0,
        0.009580851532518864
      ],
      "min": [
        -0.005612174514681101,
        0.9999383091926575,
        -0.0068888277746737
      ],
      "type": "VEC3"
    },
    {
      "bufferView": 3,
      "componentType": 5126,
      "count": 646,
      "max": [
        0.7372549176216125,
        0.7372549176216125,
        0.7372549176216125,
        1.0
      ],
      "min": [
        0.7372549176216125,
        0.7372549176216125,
        0.7372549176216125,
        1.0
      ],
      "type": "VEC4"
    },
    {
      "bufferView": 0,
      "componentType": 5125,
      "count": 1932,
      "type": "SCALAR"
    },
    {
      "bufferView": 2,
      "byteOffset": 15504,
      "componentType": 5126,
      "count": 65532,
      "max": [
        25.822961807250977,
        -0.5242469906806946,
        19.75373077392578
      ],
      "min": [
        -1.9506440162658691,
        -24.107852935791016,
        -16.732954025268555
      ],
      "type": "VEC3"
    },
    {
      "bufferView": 2,
      "byteOffset": 801888,
      "componentType": 5126,
      "count": 65532,
      "max": [
        0.9999760389328003,
        0.999320924282074,
        0.999933660030365
      ],
      "min": [
        -0.9998620748519897,
        -0.9999954700469971,
        -0.9999221563339233
      ],
      "type": "VEC3"
    },
    {
      "bufferView": 3,
      "byteOffset": 10336,
      "componentType": 5126,
      "count": 65532,
      "max": [
        1.0,
        1.0,
        1.0,
        1.0
      ],
      "min": [
        0.7372549176216125,
        0.7372549176216125,
        0.7372549176216125,
        1.0
      ],
      "type": "VEC4"
    },
    {
      "bufferView": 1,
      "componentType": 5126,
      "count": 65532,
      "max": [
        0.9980720281600952,
        0.9997810125350952
      ],
      "min": [
        0.0,
        0.0
      ],
      "type": "VEC2"
    },
    {
      "bufferView": 0,
      "byteOffset": 7728,
      "componentType": 5125,
      "count": 331596,
      "type": "SCALAR"
    },
    {
      "bufferView": 2,
      "byteOffset": 1588272,
      "componentType": 5126,
      "count": 65532,
      "max": [
        26.55450439453125,
        -0.5242480039596558,
        20.489288330078125
      ],
      "min": [
        -1.9463820457458496,
        -24.111080169677734,
        -19.982322692871094
      ],
      "type": "VEC3"
    },
    {
      "bufferView": 2,
      "byteOffset": 2374656,
      "componentType": 5126,
      "count": 65532,
      "max": [
        0.9999668002128601,
        0.9996554851531982,
        0.9999286532402039
      ],
      "min": [
        -0.999977707862854,
        -0.9999998211860657,
        -0.999975860118866
      ],
      "type": "VEC3"
    },
    {
      "bufferView": 3,
      "byteOffset": 1058848,
      "componentType": 5126,
      "count": 65532,
      "max": [
        1.0,
        1.0,
        1.0,
        1.0
      ],
      "min": [
        0.7372549176216125,
        0.7372549176216125,
        0.7372549176216125,
        1.0
      ],
      "type": "VEC4"
    },
    {
      "bufferView": 1,
      "byteOffset": 524256,
      "componentType": 5126,
      "count": 65532,
      "max": [
        0.9982609748840332,
        1.0
      ],
      "min": [
        0.0006880000000819564,
        0.00015700000221841037
      ],
      "type": "VEC2"
    },
    {
      "bufferView": 0,
      "byteOffset": 1334112,
      "componentType": 5125,
      "count": 300870,
      "type": "SCALAR"
    },
    {
      "bufferView": 2,
      "byteOffset": 3161040,
      "componentType": 5126,
      "count": 4001,
      "max": [
        25.931964874267578,
        -12.90539836883545,
        13.871678352355957
      ],
      "min": [
        3.655165910720825,
        -24.094219207763672,
        -7.371805191040039
      ],
      "type": "VEC3"
    },
    {
      "bufferView": 2,
      "byteOffset": 3209052,
      "componentType": 5126,
      "count": 4001,
      "max": [
        0.9551705121994019,
        0.9360721111297607,
        0.9997891187667847
      ],
      "min": [
        -0.8280125260353088,
        -0.9999647736549377,
        -0.9998453259468079
      ],
      "type": "VEC3"
    },
    {
      "bufferView": 3,
      "byteOffset": 2107360,
      "componentType": 5126,
      "count": 4001,
      "max": [
        1.0,
        1.0,
        1.0,
        1.0
      ],
      "min": [
        1.0,
        1.0,
        1.0,
        1.0
      ],
      "type": "VEC4"
    },
    {
      "bufferView": 1,
      "byteOffset": 1048512,
      "componentType": 5126,
      "count": 4001,
      "max": [
        0.970009982585907,
        0.9963809847831726
      ],
      "min": [
        0.04316199943423271,
        0.027746999636292458
      ],
      "type": "VEC2"
    },
    {
      "bufferView": 0,
      "byteOffset": 2537592,
      "componentType": 5125,
      "count": 12261,
      "type": "SCALAR"
    },
    {
      "bufferView": 2,
      "byteOffset": 3257064,
      "componentType": 5126,
      "count": 143,
      "max": [
        11.494844436645508,
        -8.391356468200684,
        2.2735350131988525
      ],
      "min": [
        9.914900779724121,
        -9.918519973754883,
        0.6410689949989319
      ],
      "type": "VEC3"
    },
    {
      "bufferView": 2,
      "byteOffset": 3258780,
      "componentType": 5126,
      "count": 143,
      "max": [
        0.940825879573822,
        0.09931821376085281,
        0.9570111632347107
      ],
      "min": [
        -0.9863615036010742,
        -0.14861997961997986,
        -0.33888891339302063
      ],
      "type": "VEC3"
    },
    {
      "bufferView": 3,
      "byteOffset": 2171376,
      "componentType": 5126,
      "count": 143,
      "max": [
        1.0,
        1.0,
        1.0,
        1.0
      ],
      "min": [
        1.0,
        1.0,
        1.0,
        1.0
      ],
      "type": "VEC4"
    },
    {
      "bufferView": 1,
      "byteOffset": 1080520,
      "componentType": 5126,
      "count": 143,
      "max": [
        0.03125,
        0.021223999559879303
      ],
      "min": [
        0.0,
        0.0
      ],
      "type": "VEC2"
    },
    {
      "bufferView": 0,
      "byteOffset": 2586636,
      "componentType": 5125,
      "count": 675,
      "type": "SCALAR"
    }
  ],
  "asset": {
    "extras": {
      "author": "T.Koeniger (https://sketchfab.com/3D-hannover)",
      "license": "CC-BY-4.0 (http://creativecommons.org/licenses/by/4.0/)",
      "source": "https://sketchfab.com/3d-models/kylix-greek-ffe14358f8ce44b6bc201341e7dc8bfe",
      "title": "Kylix (Greek)"
    },
    "generator": "Sketchfab-12.65.0",
    "version": "2.0"
  },
  "bufferViews": [
    {
      "buffer": 0,
      "byteLength": 2589336,
      "name": "floatBufferViews",
      "target": 34963
    },
    {
      "buffer": 0,
      "byteLength": 1081664,
      "byteOffset": 2589336,
      "byteStride": 8,
      "name": "floatBufferViews",
      "target": 34962
    },
    {
      "buffer": 0,
      "byteLength": 3260496,
      "byteOffset": 3671000,
      "byteStride": 12,
      "name": "floatBufferViews",
      "target": 34962
    },
    {
      "buffer": 0,
      "byteLength": 2173664,
      "byteOffset": 6931496,
      "byteStride": 16,
      "name": "floatBufferViews",
      "target": 34962
    }
  ],
  "buffers": [
    {
      "byteLength": 9105160,
      "uri": "scene.bin"
    }
  ],
  "images": [
    {
      "uri": "textures/Mat_0_baseColor.png"
    },
    {
      "uri": "textures/Mat_1_baseColor.png"
    }
  ],
  "materials": [
    {
      "doubleSided": true,
      "name": "material_0",
      "pbrMetallicRoughness": {
        "metallicFactor": 0.0,
        "roughnessFactor": 0.6
      }
    },
    {
      "doubleSided": true,
      "name": "Mat_0",
      "pbrMetallicRoughness": {
        "baseColorTexture": {
          "index": 0
        },
        "metallicFactor": 0.0
      }
    },
    {
      "doubleSided": true,
      "name": "Mat_1",
      "pbrMetallicRoughness": {
        "baseColorTexture": {
          "index": 1
        },
        "metallicFactor": 0.0
      }
    }
  ],
  "meshes": [
    {
      "name": "Object_0",
      "primitives": [
        {
          "attributes": {
            "COLOR_0": 2,
            "NORMAL": 1,
            "POSITION": 0
          },
          "indices": 3,
          "material": 0,
          "mode": 4
        }
      ]
    },
    {
      "name": "Object_1",
      "primitives": [
        {
          "attributes": {
            "COLOR_0": 6,
            "NORMAL": 5,
            "POSITION": 4,
            "TEXCOORD_0": 7
          },
          "indices": 8,
          "material": 1,
          "mode": 4
        }
      ]
    },
    {
      "name": "Object_2",
      "primitives": [
        {
          "attributes": {
            "COLOR_0": 11,
            "NORMAL": 10,
            "POSITION": 9,
            "TEXCOORD_0": 12
          },
          "indices": 13,
          "material": 1,
          "mode": 4
        }
      ]
    },
    {
      "name": "Object_3",
      "primitives": [
        {
          "attributes": {
            "COLOR_0": 16,
            "NORMAL": 15,
            "POSITION": 14,
            "TEXCOORD_0": 17
          },
          "indices": 18,
          "material": 1,
          "mode": 4
        }
      ]
    },
    {
      "name": "Object_4",
      "primitives": [
        {
          "attributes": {
            "COLOR_0": 21,
            "NORMAL": 20,
            "POSITION": 19,
            "TEXCOORD_0": 22
          },
          "indices": 23,
          "material": 2,
          "mode": 4
        }
      ]
    }
  ],
  "nodes": [
    {
      "children": [
        1
      ],
      "matrix": [
        2.6645352591003757e-15,
        2.886579864025407e-15,
        -1.0,
        0.0,
        -1.3322676295501878e-15,
        -1.0,
        -4.218847493575595e-15,
        0.0,
        -1.0,
        2.664535259100376e-15,
        -1.3322676295501873e-15,
        0.0,
        12.555413246154785,
        -12.064180374145513,
        24.619594573974606,
        1.0
      ],
      "name": "Sketchfab_model"
    },
    {
      "children": [
        2,
        3,
        4,
        5,
        6
      ],
      "name": "Kylix5x50_1.obj.cleaner.materialmerger.gles"
    },
    {
      "mesh": 0,
      "name": "Object_2"
    },
    {
      "mesh": 1,
      "name": "Object_3"
    },
    {
      "mesh": 2,
      "name": "Object_4"
    },
    {
      "mesh": 3,
      "name": "Object_5"
    },
    {
      "mesh": 4,
      "name": "Object_6"
    }
  ],
  "samplers": [
    {
      "magFilter": 9729,
      "minFilter": 9987,
      "wrapS": 10497,
      "wrapT": 10497
    }
  ],
  "scene": 0,
  "scenes": [
    {
      "name": "Sketchfab_Scene",
      "nodes": [
        0
      ]
    }
  ],
  "textures": [
    {
      "sampler": 0,
      "source": 0
    },
    {
      "sampler": 0,
      "source": 1
    }
  ]
}
