{
  "accessors": [
    {
      "bufferView": 2,
      "componentType": 5126,
      "count": 65532,
      "max": [
        1.577436089515686,
        -0.0032505125273019075,
        1.4557886123657227
      ],
      "min": [
        0.2606739103794098,
        -2.234459638595581,
        -0.2499832659959793
      ],
      "type": "VEC3"
    },
    {
      "bufferView": 2,
      "byteOffset": 786384,
      "componentType": 5126,
      "count": 65532,
      "max": [
        0.9999631643295288,
        0.9997909069061279,
        0.9999796152114868
      ],
      "min": [
        -0.9999878406524658,
        -0.9999821782112122,
        -0.9999983310699463
      ],
      "type": "VEC3"
    },
    {
      "bufferView": 1,
      "componentType": 5126,
      "count": 65532,
      "max": [
        0.9881229996681213,
        0.996425986289978
      ],
      "min": [
        0.0039059999398887157,
        0.0039059999398887157
      ],
      "type": "VEC2"
    },
    {
      "bufferView": 0,
      "componentType": 5125,
      "count": 347109,
      "type": "SCALAR"
    },
    {
      "bufferView": 2,
      "byteOffset": 1572768,
      "componentType": 5126,
      "count": 65532,
      "max": [
        1.698359489440918,
        -0.004746586550027132,
        1.6809285879135132
      ],
      "min": [
        -0.2149982899427414,
        -3.4408674240112305,
        -0.3449941873550415
      ],
      "type": "VEC3"
    },
    {
      "bufferView": 2,
      "byteOffset": 2359152,
      "componentType": 5126,
      "count": 65532,
      "max": [
        0.9999978542327881,
        0.9999023079872131,
        0.9999939203262329
      ],
      "min": [
        -0.999997615814209,
        -0.9999997019767761,
        -0.9999977946281433
      ],
      "type": "VEC3"
    },
    {
      "bufferView": 1,
      "byteOffset": 524256,
      "componentType": 5126,
      "count": 65532,
      "max": [
        0.994566023349762,
        0.9995859861373901
      ],
      "min": [
        0.0,
        0.004226000048220158
      ],
      "type": "VEC2"
    },
    {
      "bufferView": 0,
      "byteOffset": 1388436,
      "componentType": 5125,
      "count": 340464,
      "type": "SCALAR"
    },
    {
      "bufferView": 2,
      "byteOffset": 3145536,
      "componentType": 5126,
      "count": 60251,
      "max": [
        1.6964890956878662,
        -0.0031115554738789797,
        1.677124261856079
      ],
      "min": [
        -0.07384931296110153,
        -3.1797666549682617,
        -0.45376628637313843
      ],
      "type": "VEC3"
    },
    {
      "bufferView": 2,
      "byteOffset": 3868548,
      "componentType": 5126,
      "count": 60251,
      "max": [
        0.9999942183494568,
        0.9998541474342346,
        0.9999796152114868
      ],
      "min": [
        -0.9999985098838806,
        -0.9999987483024597,
        -0.9999982714653015
      ],
      "type": "VEC3"
    },
    {
      "bufferView": 1,
      "byteOffset": 1048512,
      "componentType": 5126,
      "count": 60251,
      "max": [
        0.9960809946060181,
        0.9994900226593018
      ],
      "min": [
        0.0001720000000204891,
        0.0039059999398887157
      ],
      "type": "VEC2"
    },
    {
      "bufferView": 0,
      "byteOffset": 2750292,
      "componentType": 5125,
      "count": 269022,
      "type": "SCALAR"
    },
    {
      "bufferView": 2,
      "byteOffset": 4591560,
      "componentType": 5126,
      "count": 12738,
      "max": [
        1.698359489440918,
        -0.0031115554738789797,
        1.6809285879135132
      ],
      "min": [
        0.5338892340660095,
        -0.026543183252215385,
        -0.023535436019301414
      ],
      "type": "VEC3"
    },
    {
      "bufferView": 2,
      "byteOffset": 4744416,
      "componentType": 5126,
      "count": 12738,
      "max": [
        0.9997912645339966,
        0.9999746084213257,
        0.9992263317108154
      ],
      "min": [
        -0.9983868598937988,
        -0.8748860955238342,
        -0.9991999864578247
      ],
      "type": "VEC3"
    },
    {
      "bufferView": 1,
      "byteOffset": 1530520,
      "componentType": 5126,
      "count": 12738,
      "max": [
        0.0,
        0.0
      ],
      "min": [
        0.0,
        0.0
      ],
      "type": "VEC2"
    },
    {
      "bufferView": 0,
      "byteOffset": 3826380,
      "componentType": 5125,
      "count": 73278,
      "type": "SCALAR"
    }
  ],
  "asset": {
    "extras": {
      "author": "mjtattersall (https://sketchfab.com/mjtattersall)",
      "license": "CC-BY-4.0 (http://creativecommons.org/licenses/by/4.0/)",
      "source": "https://sketchfab.com/3d-models/diana-the-huntress-2d0ac3c9a7e84ad1b85908742614fad0",
      "title": "Diana the Huntress"
    },
    "generator": "Sketchfab-15.5.0",
    "version": "2.0"
  },
  "bufferViews": [
    {
      "buffer": 0,
      "byteLength": 4119492,
      "name": "floatBufferViews",
      "target": 34963
    },
    {
      "buffer": 0,
      "byteLength": 1632424,
      "byteOffset": 4119492,
      "byteStride": 8,
      "name": "floatBufferViews",
      "target": 34962
    },
    {
      "buffer": 0,
      "byteLength": 4897272,
      "byteOffset": 5751916,
      "byteStride": 12,
      "name": "floatBufferViews",
      "target": 34962
    }
  ],
  "buffers": [
    {
      "byteLength": 10649188,
      "uri": "scene.bin"
    }
  ],
  "extensionsRequired": [
    "KHR_materials_pbrSpecularGlossiness"
  ],
  "extensionsUsed": [
    "KHR_materials_pbrSpecularGlossiness"
  ],
  "images": [
    {
      "uri": "textures/diana.1001_diffuse.jpeg"
    }
  ],
  "materials": [
    {
      "doubleSided": true,
      "extensions": {
        "KHR_materials_pbrSpecularGlossiness": {
          "diffuseFactor": [
            1.0,
            1.0,
            1.0,
            1.0
          ],
          "diffuseTexture": {
            "index": 0
          },
          "glossinessFactor": 0.0,
          "specularFactor": [
            1.0,
            1.0,
            1.0
          ],
          "specularGlossinessTexture": {
            "index": 0
          }
        }
      },
      "name": "diana.1001"
    }
  ],
  "meshes": [
    {
      "name": "Object_0",
      "primitives": [
        {
          "attributes": {
            "NORMAL": 1,
            "POSITION": 0,
            "TEXCOORD_0": 2
          },
          "indices": 3,
          "material": 0,
          "mode": 4
        }
      ]
    },
    {
      "name": "Object_1",
      "primitives": [
        {
          "attributes": {
            "NORMAL": 5,
            "POSITION": 4,
            "TEXCOORD_0": 6
          },
          "indices": 7,
          "material": 0,
          "mode": 4
        }
      ]
    },
    {
      "name": "Object_2",
      "primitives": [
        {
          "attributes": {
            "NORMAL": 9,
            "POSITION": 8,
            "TEXCOORD_0": 10
          },
          "indices": 11,
          "material": 0,
          "mode": 4
        }
      ]
    },
    {
      "name": "Object_3",
      "primitives": [
        {
          "attributes": {
            "NORMAL": 13,
            "POSITION": 12,
            "TEXCOORD_0": 14
          },
          "indices": 15,
          "material": 0,
          "mode": 4
        }
      ]
    }
  ],
  "nodes": [
    {
      "children": [
        1
      ],
      "matrix": [
        1.1102230246251565e-16,
        -1.6653345369377348e-16,
        -1.0,
        0.0,
        -1.6653345369377348e-16,
        -1.0,
        2.220446049250313e-16,
        0.0,
        -1.0,
        1.110223024625157e-16,
        -1.6653345369377346e-16,
        0.0,
        0.0,
        0.0,
        0.0,
        1.0
      ],
      "name": "Sketchfab_model"
    },
    {
      "children": [
        2,
        3,
        4,
        5
      ],
      "name": "diana.obj.cleaner.materialmerger.gles"
    },
    {
      "mesh": 0,
      "name": "Object_2"
    },
    {
      "mesh": 1,
      "name": "Object_3"
    },
    {
      "mesh": 2,
      "name": "Object_4"
    },
    {
      "mesh": 3,
      "name": "Object_5"
    }
  ],
  "samplers": [
    {
      "magFilter": 9729,
      "minFilter": 9987,
      "wrapS": 10497,
      "wrapT": 10497
    }
  ],
  "scene": 0,
  "scenes": [
    {
      "name": "Sketchfab_Scene",
      "nodes": [
        0
      ]
    }
  ],
  "textures": [
    {
      "sampler": 0,
      "source": 0
    }
  ]
}
